IKResults
version=1
nRows=5
nColumns=40
inDegrees=yes

Units are S.I. units (second, meters, Newtons, ...)
Angles are in degrees.

endheader
time	pelvis_tilt	pelvis_list	pelvis_rotation	pelvis_tx	pelvis_ty	pelvis_tz	hip_flexion_r	hip_adduction_r	hip_rotation_r	knee_angle_r	knee_angle_r_beta	ankle_angle_r	subtalar_angle_r	mtp_angle_r	hip_flexion_l	hip_adduction_l	hip_rotation_l	knee_angle_l	knee_angle_l_beta	ankle_angle_l	subtalar_angle_l	mtp_angle_l	lumbar_extension	lumbar_bending	lumbar_rotation	arm_flex_r	arm_add_r	arm_rot_r	elbow_flex_r	pro_sup_r	wrist_flex_r	wrist_dev_r	arm_flex_l	arm_add_l	arm_rot_l	elbow_flex_l	pro_sup_l	wrist_flex_l	wrist_dev_l
      0.31000000	     13.29099833	      2.42390541	     -1.06715680	     -0.56604254	      0.91088293	     -0.99527356	    -28.05025676	     -0.90532510	     -3.52640989	    -16.52656687	     -0.28844301	     17.14736486	     -5.41127799	     -4.17964701	     14.18909923	      1.21245730	     24.04586044	    -19.34065396	     -0.33755809	      4.17381085	     -6.26353346	     -3.50063784	    -24.53169977	     -4.99236164	      4.55494420	     -0.00343941	    -17.34039602	      0.63250921	     54.67510033	     89.95437384	      0.00000000	      0.00000000	     -8.75458357	     10.52796523	     18.04541072	     14.24817881	     89.95437384	      0.00000000	      0.00000000
      0.32000000	     13.12734310	      2.22827125	     -1.10743856	     -0.55220663	      0.90790174	     -0.99560987	    -28.50895610	     -0.81248623	     -3.57882582	    -17.15859673	     -0.29947401	     17.02506627	     -5.31388582	     -4.20144657	     15.04954054	      1.33478765	     24.17287897	    -18.88977539	     -0.32968878	      4.54121337	     -6.25991702	     -3.51948240	    -24.22536866	     -4.85850386	      4.65261812	      0.18515364	    -17.41408429	      0.48885285	     55.20474750	     89.95437384	      0.00000000	      0.00000000	     -9.67670019	     10.63325842	     18.15313247	     14.02928504	     89.95437384	      0.00000000	      0.00000000
      0.33000000	     13.26177071	      2.47288762	     -2.06129076	     -0.53742680	      0.90551394	     -0.99557312	    -28.72795023	     -1.91534550	     -4.42839400	    -18.83203720	     -0.32868105	     17.26871304	     -3.06286674	     -6.26908321	     15.09573132	      1.14847300	     25.48245223	    -18.21319600	     -0.31788024	      5.26124745	     -7.07767853	     -4.53539716	    -24.08865912	     -5.46395849	      5.43473146	      0.12423906	    -17.60361744	      0.30038012	     55.82038709	     89.95437384	      0.00000000	      0.00000000	    -10.38407931	     10.48456700	     19.90321332	     13.51308464	     89.95437384	      0.00000000	      0.00000000
      0.34000000	     13.05496547	      2.41831279	     -2.29901802	     -0.52280042	      0.90309399	     -0.99594318	    -28.91130474	     -2.07759636	     -4.00248033	    -19.99132773	     -0.34891449	     16.62918123	     -3.02972076	     -6.24306862	     15.66462716	      1.11369236	     25.39708185	    -18.12585192	     -0.31635580	      5.72090610	     -6.86554491	     -4.52001952	    -23.65727745	     -5.53586825	      5.65389930	      0.10577018	    -17.59858597	      0.11239103	     56.15332982	     89.95437384	      0.00000000	      0.00000000	    -11.19863060	     10.54874757	     20.03064138	     13.21911469	     89.95437384	      0.00000000	      0.00000000
      0.35000000	     12.84590331	      2.35731803	     -2.46837638	     -0.50743028	      0.90101821	     -0.99635506	    -29.25588376	     -2.20818726	     -3.85394922	    -20.75396600	     -0.36222504	     16.19238186	     -2.96775381	     -6.15523198	     16.11610648	      1.08185793	     24.95443960	    -18.34690117	     -0.32021383	      5.62167227	     -6.66658450	     -4.45168619	    -23.13526824	     -5.59279106	      5.80981829	     -0.04163638	    -17.57484152	      0.03701217	     56.30397027	     89.95437384	      0.00000000	      0.00000000	    -12.13144919	     10.61130823	     20.05314322	     13.05188685	     89.95437384	      0.00000000	      0.00000000
